#N canvas 670 134 696 514 10;
#N canvas 351 101 459 256 background 0;
#X obj 126 60 gemhead 1;
#X obj 126 132 pix_texture;
#X obj 47 90 loadbang;
#X msg 47 115 quality 0;
#X floatatom 363 76 5 0 0 0 - - -;
#X obj 331 -62 loadbang;
#X msg 331 -38 1;
#X msg 264 -10 updown;
#X obj 126 170 rectangle 7.11 4;
#X obj 126 94 pix_multiimage images/pixel/mer*.tif 1 4;
#X obj 331 -16 metro 1500;
#X obj 331 7 counter 0 3;
#X connect 0 0 9 0;
#X connect 1 0 8 0;
#X connect 2 0 3 0;
#X connect 3 0 1 0;
#X connect 4 0 9 1;
#X connect 5 0 6 0;
#X connect 5 0 7 0;
#X connect 6 0 10 0;
#X connect 7 0 11 0;
#X connect 9 0 1 0;
#X connect 10 0 11 0;
#X connect 11 0 4 0;
#X restore -139 -442 pd background;
#N canvas 711 48 450 300 son 0;
#X obj 27 -17 loadbang;
#X obj 177 45 soundfiler;
#X obj 185 235 dac~;
#X obj 215 159 bng 15 250 50 0 empty empty empty 17 7 0 10 -262144
-1 -1;
#X msg 177 1 open sons/tir.wav;
#X obj 23 63 soundfiler;
#X msg 23 41 read -resize \$1 explo;
#X obj 23 85 table explo 1;
#X obj 177 67 table tir 1;
#X msg 177 23 read -resize \$1 tir;
#X msg 23 19 open sons/explo.wav;
#X obj 97 184 tabplay~ explo;
#X obj 95 159 bng 15 250 50 0 empty empty empty 17 7 0 10 -262144 -1
-1;
#X obj 216 184 tabplay~ tir;
#X msg 333 30 \; pd dsp 1 \;;
#X obj 32 131 r explosion_1;
#X obj 117 131 r explosion_2;
#X obj 340 1 r reset;
#X obj 215 132 r boulet_lance_1;
#X obj 319 131 r boulet_lance_2;
#X connect 0 0 4 0;
#X connect 0 0 10 0;
#X connect 3 0 13 0;
#X connect 4 0 9 0;
#X connect 6 0 5 0;
#X connect 9 0 1 0;
#X connect 10 0 6 0;
#X connect 11 0 2 1;
#X connect 11 0 2 0;
#X connect 12 0 11 0;
#X connect 13 0 2 0;
#X connect 13 0 2 1;
#X connect 15 0 12 0;
#X connect 16 0 12 0;
#X connect 17 0 14 0;
#X connect 18 0 3 0;
#X connect 19 0 3 0;
#X restore -138 -421 pd son;
#N canvas 146 98 905 495 images 0;
#X obj 36 19 loadbang;
#X obj 572 130 loadbang;
#X msg 593 155 open images/explo1.tif 0;
#X msg 593 175 open images/explo2.tif 1;
#X obj 571 199 pix_buffer explo 2;
#X obj 301 11 loadbang;
#X obj 287 207 loadbang;
#X obj 301 56 pix_buffer boulet 1;
#X obj 510 15 loadbang;
#X obj 510 90 pix_buffer sillage 2;
#X obj 44 284 loadbang;
#X obj 44 359 pix_buffer degats 2;
#X obj 543 237 loadbang;
#X obj 543 282 pix_buffer new_boulet 1;
#X obj 285 346 pix_buffer vie 5;
#X msg 301 34 open images/pixel/boulet.tif 0;
#X msg 61 330 open images/pixel/degats_2.tif 1;
#X msg 61 308 open images/pixel/degats_1.tif 0;
#X msg 73 42 open images/pixel/bato_0.tif 0;
#X msg 73 62 open images/pixel/bato_1.tif 1;
#X msg 73 82 open images/pixel/bato_2.tif 2;
#X msg 73 103 open images/pixel/bato_3.tif 3;
#X msg 73 122 open images/pixel/bato_4.tif 4;
#X msg 71 143 open images/pixel/bato_5.tif 5;
#X obj 35 167 pix_buffer ship 6;
#X msg 527 39 open images/pixel/sillage_1.tif 0;
#X msg 527 61 open images/pixel/sillage_2.tif 1;
#X msg 308 242 open images/pixel/vie_0.tif 0;
#X msg 308 262 open images/pixel/vie_1.tif 1;
#X msg 308 282 open images/pixel/vie_2.tif 2;
#X msg 308 301 open images/pixel/vie_3.tif 3;
#X msg 308 322 open images/pixel/new_vie.tif 4;
#X msg 543 260 open images/pixel/new_boulet.tif 0;
#X connect 0 0 18 0;
#X connect 0 0 19 0;
#X connect 0 0 20 0;
#X connect 0 0 21 0;
#X connect 0 0 22 0;
#X connect 0 0 23 0;
#X connect 1 0 2 0;
#X connect 1 0 3 0;
#X connect 2 0 4 0;
#X connect 3 0 4 0;
#X connect 5 0 15 0;
#X connect 6 0 28 0;
#X connect 6 0 29 0;
#X connect 6 0 30 0;
#X connect 6 0 27 0;
#X connect 6 0 31 0;
#X connect 8 0 25 0;
#X connect 8 0 26 0;
#X connect 10 0 17 0;
#X connect 10 0 16 0;
#X connect 12 0 32 0;
#X connect 15 0 7 0;
#X connect 16 0 11 0;
#X connect 17 0 11 0;
#X connect 18 0 24 0;
#X connect 19 0 24 0;
#X connect 20 0 24 0;
#X connect 21 0 24 0;
#X connect 22 0 24 0;
#X connect 23 0 24 0;
#X connect 25 0 9 0;
#X connect 26 0 9 0;
#X connect 27 0 14 0;
#X connect 28 0 14 0;
#X connect 29 0 14 0;
#X connect 30 0 14 0;
#X connect 31 0 14 0;
#X connect 32 0 13 0;
#X restore -95 -421 pd images;
#X obj -32 -341 bng 30 250 50 0 reset empty reset 32 15 0 10 -4034
-4032 -1;
#X obj 9 -223 bng 15 250 50 0 empty empty fire_1 17 7 0 10 -262144
-1 -1;
#X obj 100 -222 bng 15 250 50 0 empty empty fire_2 17 7 0 10 -262144
-1 -1;
#X obj -25 -408 key;
#X obj -25 -385 sel 114 97 122;
#X text 97 -446 "r = reset \, a = tir1 \, z = tir2";
#N canvas 579 95 733 535 controles 0;
#X obj 315 121 vsl 20 120 -90 270 0 0 empty empty empty 0 -9 0 10 -203904
-258113 -4160 3947 1;
#X floatatom 185 307 5 0 0 0 - - -;
#X obj 185 121 vsl 20 120 -270 90 0 0 empty empty empty 0 -9 0 10 -203904
-258113 -4160 5950 1;
#X floatatom 315 247 5 0 0 0 - - -;
#X floatatom 278 247 5 0 360 0 - - -;
#X floatatom 244 247 4 0 360 0 - - -;
#X obj 244 340 s coords_2;
#X obj 161 333 t b f;
#X obj 244 312 pack f f f;
#X obj 252 273 t b f;
#X obj 291 273 t b f;
#X obj 175 -21 r reset;
#X obj 107 119 grid grid1 60 -6 -1.4 120 -3.5 3.5 0 0.01 0.01 10 10
-251 -154;
#X floatatom 107 307 5 0 0 0 - - -;
#X floatatom 142 308 5 0 0 0 - - -;
#X obj 104 372 pack f f f;
#X obj 104 400 s coords_1;
#X obj 121 333 t b f;
#X msg 107 45 values -3 0;
#X obj 240 119 grid grid1 60 1.4 6 120 -3.5 3.5 0 0.01 0.01 10 10 -137
-154;
#X msg 240 45 values 3 0;
#X msg 228 23 color 177 214 177;
#X msg 108 24 color 203 231 237;
#X msg 315 45 29.4;
#X msg 185 45 -90;
#X connect 0 0 3 0;
#X connect 1 0 7 0;
#X connect 2 0 1 0;
#X connect 3 0 10 0;
#X connect 4 0 9 0;
#X connect 5 0 8 0;
#X connect 7 0 15 0;
#X connect 7 1 15 2;
#X connect 8 0 6 0;
#X connect 9 0 8 0;
#X connect 9 1 8 1;
#X connect 10 0 8 0;
#X connect 10 1 8 2;
#X connect 11 0 24 0;
#X connect 11 0 23 0;
#X connect 11 0 18 0;
#X connect 11 0 20 0;
#X connect 11 0 21 0;
#X connect 11 0 22 0;
#X connect 12 0 13 0;
#X connect 12 1 14 0;
#X connect 13 0 15 0;
#X connect 14 0 17 0;
#X connect 15 0 16 0;
#X connect 17 0 15 0;
#X connect 17 1 15 1;
#X connect 18 0 12 0;
#X connect 19 0 5 0;
#X connect 19 1 4 0;
#X connect 20 0 19 0;
#X connect 21 0 19 0;
#X connect 22 0 12 0;
#X connect 23 0 0 0;
#X connect 24 0 2 0;
#X coords 0 -1 1 1 250 150 1 100 100;
#X restore -297 -233 pd controles;
#X obj -85 -387 loadbang;
#X text 240 -107 GEMHEADS : \; 1-mer \; 50-sillage \; 55-bateau 56-degats
\; 58-parchemin \; 65-wintext \; 90-vie \; 80-qté boulets 95-vie+1
\; 96-boulet+1 \;;
#X obj -299 -390 tracking;
#X obj -299 -259 s coords_1;
#X obj -146 -260 s coords_2;
#X obj 9 -198 sp/bateau 1 2;
#X obj -299 -445 ../video_out;
#X obj -27 -89 s boatsize;
#X obj -27 -146 loadbang;
#X msg -27 -120 0.6;
#X obj -27 -165 r reset;
#N canvas 388 164 652 427 entree_son 0;
#X obj 165 -100 adc~;
#X floatatom 245 21 5 0 0 0 - - -;
#X floatatom 317 22 5 0 0 0 - - -;
#X obj 245 83 >;
#X obj 347 54 r soundlimit;
#X obj 317 82 >;
#X obj 107 135 vsl 15 128 0 100 0 0 empty empty empty 0 -9 0 10 -262144
-1 -1 5695 1;
#X obj 137 135 vsl 15 128 0 100 0 0 empty empty empty 0 -9 0 10 -262144
-1 -1 5695 1;
#X obj 167 135 vsl 15 128 0 100 0 0 empty empty limit 0 -9 0 10 -262144
-1 -1 9900 1;
#X obj 167 281 s soundlimit;
#X obj 244 115 sel 1;
#X obj 244 196 onebang;
#X obj 254 269 outlet;
#X obj 314 115 sel 1;
#X obj 314 196 onebang;
#X obj 324 269 outlet;
#X obj 480 91 r soundlimit;
#X obj 378 120 <;
#X obj 450 119 <;
#X obj 378 151 sel 1;
#X obj 450 151 sel 1;
#X obj 164 -37 hip~ 5;
#X obj 164 -9 env~ 8192;
#X obj 324 -37 hip~ 5;
#X obj 324 -9 env~ 8192;
#X msg 151 59 75;
#X obj 146 36 loadbang;
#X connect 0 0 21 0;
#X connect 0 1 23 0;
#X connect 1 0 3 0;
#X connect 1 0 6 0;
#X connect 1 0 17 0;
#X connect 2 0 5 0;
#X connect 2 0 7 0;
#X connect 2 0 18 0;
#X connect 3 0 10 0;
#X connect 4 0 3 1;
#X connect 4 0 5 1;
#X connect 5 0 13 0;
#X connect 8 0 9 0;
#X connect 10 0 11 0;
#X connect 11 0 12 0;
#X connect 13 0 14 0;
#X connect 14 0 15 0;
#X connect 16 0 17 1;
#X connect 16 0 18 1;
#X connect 17 0 19 0;
#X connect 18 0 20 0;
#X connect 19 0 11 1;
#X connect 20 0 14 1;
#X connect 21 0 22 0;
#X connect 22 0 1 0;
#X connect 23 0 24 0;
#X connect 24 0 2 0;
#X connect 25 0 8 0;
#X connect 26 0 25 0;
#X coords 0 -1 1 1 100 170 1 100 100;
#X restore 106 -419 pd entree_son;
#X obj -76 -25 s vitesse_boulet;
#X msg -76 -46 0.06;
#X obj 100 -199 sp/bateau 2 1;
#X obj 37 -24 s delai_new_vie;
#X msg 37 -53 5000;
#X text -262 -49 reglages : nb boulets debut temps de recharge;
#X connect 4 0 15 0;
#X connect 5 0 24 0;
#X connect 6 0 7 0;
#X connect 7 0 3 0;
#X connect 7 1 4 0;
#X connect 7 2 5 0;
#X connect 10 0 3 0;
#X connect 12 0 13 0;
#X connect 12 1 14 0;
#X connect 18 0 19 0;
#X connect 19 0 17 0;
#X connect 20 0 19 0;
#X connect 21 0 4 0;
#X connect 21 1 5 0;
#X connect 23 0 22 0;
#X connect 26 0 25 0;
