#N canvas 665 88 450 546 10;
#X obj 112 78 pix_blob 0;
#X floatatom 132 103 5 0 0 0 - - -;
#X floatatom 179 103 5 0 0 0 - - -;
#X obj 165 143 maxlib/scale 0 1 -3.5 3.5;
#X obj 166 320 t b f;
#X obj 132 422 outlet;
#X obj 165 168 clip -3.5 3.5;
#X obj 204 320 t b f;
#X obj 112 33 inlet;
#X obj 132 209 maxlib/scale 0 1 \$1 \$2;
#X obj 132 376 pack 0 0 0;
#X obj 237 32 inlet;
#X obj 132 237 clip \$3 \$4;
#X connect 0 1 1 0;
#X connect 0 2 2 0;
#X connect 1 0 9 0;
#X connect 2 0 3 0;
#X connect 3 0 6 0;
#X connect 4 0 10 0;
#X connect 4 1 10 1;
#X connect 6 0 4 0;
#X connect 7 0 10 0;
#X connect 7 1 10 2;
#X connect 8 0 0 0;
#X connect 9 0 12 0;
#X connect 10 0 5 0;
#X connect 11 0 7 0;
#X connect 12 0 10 0;
