#N canvas 69 112 778 496 10;
#X obj 200 279 moocow/bytes2any;
#X obj 174 147 select 10;
#X obj 224 193 list prepend;
#X obj 197 254 list;
#X obj 311 237 t l;
#X msg 117 22 close;
#X obj 200 317 list split 2;
#X obj 198 350 list trim;
#X floatatom 198 457 5 0 0 0 - - -;
#X obj 270 357 list split 2;
#X obj 268 390 list trim;
#X obj 360 397 list split 2;
#X obj 358 430 list trim;
#X floatatom 269 454 5 0 0 0 - - -;
#X floatatom 365 514 5 0 0 0 - - -;
#X obj 199 391 route b1:;
#X obj 460 437 list split 2;
#X obj 458 470 list trim;
#X floatatom 458 525 5 0 0 0 - - -;
#X obj 459 501 route s1:;
#X obj 359 461 route r1:;
#X obj 269 421 route p1:;
#X obj 175 6 inlet;
#X obj 198 517 s rota_\$2;
#X obj 355 552 s son_\$2;
#X obj 174 69 comport 3 9600;
#X obj 362 62 moocow/any2bytes;
#X obj 370 26 tgl 15 0 empty empty empty 17 7 0 10 -262144 -1 -1 1
1;
#X msg 175 31 open 3;
#X connect 0 0 6 0;
#X connect 1 0 3 0;
#X connect 1 0 2 1;
#X connect 1 1 2 0;
#X connect 2 0 3 1;
#X connect 2 0 4 0;
#X connect 3 0 0 0;
#X connect 4 0 2 1;
#X connect 5 0 25 0;
#X connect 6 0 7 0;
#X connect 6 1 9 0;
#X connect 7 0 15 0;
#X connect 8 0 23 0;
#X connect 9 0 10 0;
#X connect 9 1 11 0;
#X connect 10 0 21 0;
#X connect 11 0 12 0;
#X connect 11 1 16 0;
#X connect 12 0 20 0;
#X connect 15 0 8 0;
#X connect 16 0 17 0;
#X connect 17 0 19 0;
#X connect 18 0 24 0;
#X connect 19 0 18 0;
#X connect 20 0 14 0;
#X connect 21 0 13 0;
#X connect 22 0 28 0;
#X connect 25 0 1 0;
#X connect 26 0 25 0;
#X connect 27 0 26 0;
#X connect 28 0 25 0;
