#N canvas 0 0 425 581 10;
#X obj -4 -1385 outlet;
#X floatatom -4 -1672 5 0 0 0 x - -;
#X floatatom 44 -1673 5 0 0 0 y - -;
#X floatatom 110 -1671 5 0 0 0 angle - -;
#X obj -4 -1726 unpack 0 0 0;
#X obj 42 -1619 maxlib/scale 0 1 -3.5 3.5;
#X obj 42 -1594 clip -3.5 3.5;
#X obj 30 -1478 t b f;
#X obj 68 -1478 t b f;
#X obj -4 -1422 pack 0 0 0;
#X obj 68 -1517 * -57.32;
#X obj -103 -1820 inlet;
#X obj -4 -1538 clip \$1 \$2;
#X obj -103 -1781 pix_fiducialtrack;
#X obj -4 -1754 route \$3;
#X obj 120 -1486 - 90;
#X obj -4 -1566 maxlib/scale 0 1 \$1 \$2;
#X connect 1 0 16 0;
#X connect 2 0 5 0;
#X connect 3 0 10 0;
#X connect 4 0 1 0;
#X connect 4 1 2 0;
#X connect 4 2 3 0;
#X connect 5 0 6 0;
#X connect 6 0 7 0;
#X connect 7 0 9 0;
#X connect 7 1 9 1;
#X connect 8 0 9 0;
#X connect 8 1 9 2;
#X connect 9 0 0 0;
#X connect 10 0 15 0;
#X connect 11 0 13 0;
#X connect 12 0 9 0;
#X connect 13 1 14 0;
#X connect 14 0 4 0;
#X connect 15 0 8 0;
#X connect 16 0 12 0;
