#N canvas 28 75 1210 397 10;
#X obj 272 133 pix_grey;
#X floatatom 743 200 5 0 0 0 - - -;
#X obj 272 166 pix_threshold;
#X obj 637 200 hsl 100 15 0 1 0 0 empty empty seuil -2 -8 0 10 -262144
-1 -1 9900 1;
#X obj 580 120 loadbang;
#X msg 580 145 0.84;
#X obj 396 65 ../../camera_in;
#X obj 606 288 pix_texture;
#X obj 606 321 rectangle 7.11 4;
#X obj 606 264 switch;
#N canvas 679 92 450 300 crop 0;
#X obj 100 28 inlet list;
#X floatatom -38 117 4 0 0 1 width - -;
#X floatatom 27 116 4 0 0 1 height - -;
#X obj -35 90 pix_info . . . .;
#X obj 260 94 separator;
#X obj 174 96 separator;
#X obj 207 174 / 2;
#X obj 44 211 pix_crop;
#X obj 260 187 pix_crop;
#X obj 41 238 outlet;
#X obj 260 241 outlet;
#X connect 0 0 3 0;
#X connect 0 0 5 0;
#X connect 0 0 4 0;
#X connect 1 0 6 0;
#X connect 2 0 7 2;
#X connect 2 0 8 2;
#X connect 3 1 1 0;
#X connect 3 2 2 0;
#X connect 4 0 8 0;
#X connect 5 0 7 0;
#X connect 6 0 7 1;
#X connect 6 0 8 1;
#X connect 6 0 8 3;
#X connect 7 0 9 0;
#X connect 8 0 10 0;
#X restore 272 233 pd crop;
#X obj 636 141 vradio 15 1 0 3 empty empty apercu 0 -8 0 10 -262144
-1 -1 0;
#X text 655 155 normal;
#X text 655 139 non;
#X text 655 170 filtré;
#X obj 1052 148 pix_texture;
#N canvas 679 92 450 300 crop 0;
#X obj 100 28 inlet list;
#X floatatom -38 117 4 0 0 1 width - -;
#X floatatom 27 116 4 0 0 1 height - -;
#X obj -35 90 pix_info . . . .;
#X obj 260 94 separator;
#X obj 174 96 separator;
#X obj 207 174 / 2;
#X obj 44 211 pix_crop;
#X obj 260 187 pix_crop;
#X obj 41 238 outlet;
#X obj 260 241 outlet;
#X connect 0 0 3 0;
#X connect 0 0 5 0;
#X connect 0 0 4 0;
#X connect 1 0 6 0;
#X connect 2 0 7 2;
#X connect 2 0 8 2;
#X connect 3 1 1 0;
#X connect 3 2 2 0;
#X connect 4 0 8 0;
#X connect 5 0 7 0;
#X connect 6 0 7 1;
#X connect 6 0 8 1;
#X connect 6 0 8 3;
#X connect 7 0 9 0;
#X connect 8 0 10 0;
#X restore 813 163 pd crop;
#X obj 813 86 pix_grey;
#X obj 813 113 pix_invert;
#N canvas 3 16 634 657 boussole_1 0;
#X obj 200 279 moocow/bytes2any;
#X obj 174 147 select 10;
#X obj 224 193 list prepend;
#X obj 197 254 list;
#X obj 311 237 t l;
#X msg 117 22 close;
#X obj 175 6 inlet;
#X obj 362 62 moocow/any2bytes;
#X obj 370 26 tgl 15 0 empty empty empty 17 7 0 10 -262144 -1 -1 0
1;
#X obj 196 323 list split 2;
#X obj 194 356 list trim;
#X floatatom 194 513 5 0 0 0 - - -;
#X obj 135 613 s rota_1;
#X obj 194 613 outlet;
#X obj 174 69 comport 9 115200;
#X msg 175 31 open 9;
#X floatatom 296 517 5 0 0 0 - - -;
#X obj 296 617 outlet;
#X obj 313 463 * -1;
#X obj 317 439 + 90;
#X floatatom 386 430 5 0 0 0 - - -;
#X floatatom 459 261 5 0 0 0 - - -;
#X obj 463 333 * -1;
#X obj 463 313 + 90;
#X floatatom 467 399 5 0 0 0 - - -;
#X obj 194 544 maxlib/scale 0 255 0 -360;
#X obj 367 545 maxlib/scale 0 255 0 -360;
#X obj 237 617 s rota_2;
#X obj 297 401 route c;
#X obj 195 397 route b;
#X obj 367 579 - 90;
#X obj 194 578 - 90;
#X connect 0 0 9 0;
#X connect 1 0 3 0;
#X connect 1 0 2 1;
#X connect 1 1 2 0;
#X connect 2 0 3 1;
#X connect 2 0 4 0;
#X connect 3 0 0 0;
#X connect 4 0 2 1;
#X connect 5 0 14 0;
#X connect 6 0 15 0;
#X connect 7 0 14 0;
#X connect 8 0 7 0;
#X connect 9 0 10 0;
#X connect 10 0 28 0;
#X connect 10 0 29 0;
#X connect 11 0 25 0;
#X connect 14 0 1 0;
#X connect 15 0 14 0;
#X connect 16 0 26 0;
#X connect 19 0 18 0;
#X connect 21 0 23 0;
#X connect 22 0 24 0;
#X connect 23 0 22 0;
#X connect 25 0 31 0;
#X connect 26 0 30 0;
#X connect 28 0 20 0;
#X connect 28 0 16 0;
#X connect 29 0 11 0;
#X connect 30 0 17 0;
#X connect 30 0 27 0;
#X connect 31 0 13 0;
#X connect 31 0 12 0;
#X restore 330 271 pd boussole_1;
#X obj 355 236 bng 15 250 50 0 empty empty empty 17 7 0 10 -262144
-1 -1;
#X obj 161 365 outlet;
#X obj 380 362 outlet;
#X floatatom 343 314 5 0 0 0 - - -;
#X floatatom 494 255 5 0 0 0 - - -;
#X obj 1053 172 rectangle 0.01 4;
#X obj 1064 103 colorRGB 1 0 0;
#X obj 1058 60 gemhead 99;
#X floatatom 968 96 5 0 0 0 - - -;
#X obj 813 138 pix_threshold_bernsen;
#X obj 941 238 fiductrack 0 7.11 13;
#X obj 927 38 sel 1 2;
#X msg 983 67 1;
#X msg 1017 75 0;
#X obj 804 235 fiductrack -7.11 0 14;
#X obj 271 85 pix_crop 112 47 494 481;
#X obj 159 308 blobtrack -7.11 0 -6 -1.4;
#X obj 383 306 blobtrack 0 7.11 1.4 6;
#X obj 1036 34 loadbang;
#X obj 273 -49 loadbang;
#X msg 272 -25 both;
#X text 63 82 !! X_off \, Y_off \, X_scale \, Y_scale;
#X connect 0 0 2 0;
#X connect 1 0 2 1;
#X connect 2 0 10 0;
#X connect 2 0 9 2;
#X connect 3 0 1 0;
#X connect 4 0 5 0;
#X connect 5 0 3 0;
#X connect 6 0 35 0;
#X connect 7 0 8 0;
#X connect 9 0 7 0;
#X connect 10 0 36 0;
#X connect 10 1 37 0;
#X connect 11 0 9 0;
#X connect 11 0 31 0;
#X connect 15 0 25 0;
#X connect 16 0 34 0;
#X connect 16 1 30 0;
#X connect 17 0 18 0;
#X connect 18 0 29 0;
#X connect 19 0 23 0;
#X connect 19 0 36 1;
#X connect 19 1 24 0;
#X connect 19 1 37 1;
#X connect 20 0 19 0;
#X connect 26 0 15 0;
#X connect 27 0 26 0;
#X connect 28 0 29 2;
#X connect 29 0 16 0;
#X connect 31 0 32 0;
#X connect 31 1 32 0;
#X connect 31 2 33 0;
#X connect 32 0 27 0;
#X connect 33 0 27 0;
#X connect 35 0 0 0;
#X connect 35 0 9 1;
#X connect 36 0 21 0;
#X connect 37 0 22 0;
#X connect 38 0 33 0;
#X connect 39 0 40 0;
#X connect 40 0 6 0;
#X coords 0 -1 1 1 160 120 1 630 100;
