#N canvas 262 32 990 695 10;
#X obj 396 329 pix_grey;
#X floatatom 466 327 5 0 0 0 - - -;
#X obj 396 355 pix_threshold;
#X obj 466 271 loadbang;
#X msg 466 296 0.84;
#X obj 396 97 ../../camera_in;
#X obj 636 425 pix_texture;
#X obj 636 448 rectangle 7.11 4;
#X obj 636 401 switch;
#N canvas 679 92 450 300 crop 0;
#X obj 100 28 inlet list;
#X floatatom -38 117 4 0 0 1 width - -;
#X floatatom 27 116 4 0 0 1 height - -;
#X obj -35 90 pix_info . . . .;
#X obj 260 94 separator;
#X obj 174 96 separator;
#X obj 207 174 / 2;
#X obj 44 211 pix_crop;
#X obj 260 187 pix_crop;
#X obj 41 238 outlet;
#X obj 260 241 outlet;
#X connect 0 0 3 0;
#X connect 0 0 5 0;
#X connect 0 0 4 0;
#X connect 1 0 6 0;
#X connect 2 0 7 2;
#X connect 2 0 8 2;
#X connect 3 1 1 0;
#X connect 3 2 2 0;
#X connect 4 0 8 0;
#X connect 5 0 7 0;
#X connect 6 0 7 1;
#X connect 6 0 8 1;
#X connect 6 0 8 3;
#X connect 7 0 9 0;
#X connect 8 0 10 0;
#X restore 396 381 pd crop;
#X obj 636 240 vradio 15 1 0 3 empty empty apercu 0 -8 0 10 -262144
-1 -1 0;
#X text 655 269 filtré;
#X obj 833 496 pix_texture;
#N canvas 578 13 634 657 boussole_1 0;
#X obj 194 279 moocow/bytes2any;
#X obj 194 147 select 10;
#X obj 245 193 list prepend;
#X obj 194 254 list;
#X obj 330 193 t l;
#X msg 117 62 close;
#X obj 194 37 inlet;
#X obj 262 62 moocow/any2bytes;
#X obj 262 37 tgl 15 0 empty empty empty 17 7 0 10 -262144 -1 -1 0
1;
#X obj 194 323 list split 2;
#X obj 194 356 list trim;
#X floatatom 194 513 5 0 0 0 - - -;
#X obj 135 613 s rota_1;
#X obj 194 613 outlet;
#X obj 194 120 comport 9 115200;
#X floatatom 367 516 5 0 0 0 - - -;
#X obj 426 610 outlet;
#X floatatom 463 293 5 0 0 0 - - -;
#X obj 463 333 * -1;
#X obj 463 313 + 90;
#X floatatom 463 354 5 0 0 0 - - -;
#X obj 194 544 maxlib/scale 0 255 0 -360;
#X obj 367 545 maxlib/scale 0 255 0 -360;
#X obj 367 610 s rota_2;
#X obj 367 400 route c;
#X obj 194 397 route b;
#X msg 194 62 open 9;
#X obj 194 578 - 65;
#X obj 366 579 - 60;
#X connect 0 0 9 0;
#X connect 1 0 3 0;
#X connect 1 0 2 1;
#X connect 1 1 2 0;
#X connect 2 0 3 1;
#X connect 2 0 4 0;
#X connect 3 0 0 0;
#X connect 4 0 2 1;
#X connect 5 0 14 0;
#X connect 6 0 26 0;
#X connect 7 0 14 0;
#X connect 8 0 7 0;
#X connect 9 0 10 0;
#X connect 10 0 24 0;
#X connect 10 0 25 0;
#X connect 11 0 21 0;
#X connect 14 0 1 0;
#X connect 15 0 22 0;
#X connect 17 0 19 0;
#X connect 18 0 20 0;
#X connect 19 0 18 0;
#X connect 21 0 27 0;
#X connect 22 0 28 0;
#X connect 24 0 15 0;
#X connect 25 0 11 0;
#X connect 26 0 14 0;
#X connect 27 0 13 0;
#X connect 27 0 12 0;
#X connect 28 0 16 0;
#X connect 28 0 23 0;
#X restore 412 429 pd boussole_1;
#X obj 412 411 bng 15 250 50 0 empty empty empty 17 7 0 10 -262144
-1 -1;
#X obj 265 527 outlet;
#X obj 484 527 outlet;
#X obj 833 521 rectangle 0.01 4;
#X obj 833 471 colorRGB 1 0 0;
#X obj 833 446 gemhead 99;
#X obj 833 388 sel 1 2;
#X msg 833 422 1;
#X msg 872 421 0;
#X obj 886 388 loadbang;
#X obj 396 52 loadbang;
#X text 655 238 jeu;
#X text 655 254 camera;
#X text 821 361 ligne rouge verticale;
#X obj 265 498 blobtrack -7.11 0 -6 -1.4;
#X obj 484 497 blobtrack 0 7.11 1.4 6;
#X text 436 71 none \, horizontal \, vertical \, both;
#X obj 739 22 ../sp/crop_interface;
#X msg 396 73 none;
#X connect 0 0 2 0;
#X connect 1 0 2 1;
#X connect 2 0 9 0;
#X connect 2 0 8 2;
#X connect 3 0 4 0;
#X connect 4 0 1 0;
#X connect 5 0 8 1;
#X connect 5 0 0 0;
#X connect 6 0 7 0;
#X connect 8 0 6 0;
#X connect 9 0 28 0;
#X connect 9 1 29 0;
#X connect 10 0 8 0;
#X connect 10 0 20 0;
#X connect 12 0 17 0;
#X connect 13 0 28 1;
#X connect 13 1 29 1;
#X connect 14 0 13 0;
#X connect 18 0 12 0;
#X connect 19 0 18 0;
#X connect 20 0 21 0;
#X connect 20 1 21 0;
#X connect 20 2 22 0;
#X connect 21 0 19 0;
#X connect 22 0 19 0;
#X connect 23 0 22 0;
#X connect 24 0 32 0;
#X connect 28 0 15 0;
#X connect 29 0 16 0;
#X connect 31 0 5 1;
#X connect 32 0 5 0;
#X coords 0 -1 1 1 100 90 1 630 200;
