#N canvas 492 46 696 493 10;
#X obj 22 143 cnv 15 200 60 empty empty explosion_du_bateau 20 12 0
14 -232576 -66577 0;
#N canvas 619 75 550 386 explo 0;
#X obj 115 23 r coords_\$1;
#X obj 115 50 unpack f f f;
#X floatatom 115 73 5 0 0 0 - - -;
#X floatatom 149 73 5 0 0 0 - - -;
#X obj 112 193 translateXYZ;
#X obj 112 220 pix_buffer_read explo;
#X obj 112 270 square 0.5;
#X obj 112 244 pix_texture;
#X obj 112 168 alpha;
#X obj 25 201 loadbang;
#X msg 25 227 quality 0;
#X obj 112 144 gemhead 100;
#X obj 235 195 tgl 15 0 empty empty empty 17 7 0 10 -262144 -1 -1 0
1;
#X obj 235 94 loadbang;
#X obj 235 171 metro 400;
#X msg 235 117 0;
#X obj 317 75 t b b;
#X obj 317 100 delay 1400;
#X msg 386 99 1;
#X obj 317 43 r explosion_\$1;
#X connect 0 0 1 0;
#X connect 1 0 2 0;
#X connect 1 1 3 0;
#X connect 2 0 4 1;
#X connect 3 0 4 2;
#X connect 4 0 5 0;
#X connect 5 0 7 0;
#X connect 7 0 6 0;
#X connect 8 0 4 0;
#X connect 9 0 10 0;
#X connect 10 0 7 0;
#X connect 11 0 8 0;
#X connect 12 0 5 1;
#X connect 13 0 15 0;
#X connect 14 0 12 0;
#X connect 15 0 14 0;
#X connect 15 0 11 0;
#X connect 16 0 17 0;
#X connect 16 1 18 0;
#X connect 17 0 15 0;
#X connect 18 0 14 0;
#X connect 18 0 11 0;
#X connect 19 0 16 0;
#X restore 44 177 pd explo;
#X obj 22 211 cnv 15 150 60 empty empty vie_du_bateau 20 12 0 14 -45076
-262144 0;
#N canvas 304 151 621 361 vie 0;
#X obj 102 146 translateXYZ;
#X obj 102 50 separator;
#X obj 102 261 pix_texture;
#X msg 26 229 quality 0;
#X obj 26 209 loadbang;
#X obj 102 27 alpha;
#X obj 102 221 pix_buffer_read vie;
#X floatatom 118 109 5 0 0 0 - - -;
#X obj 176 31 \$1;
#X obj 176 4 loadbang;
#X obj 102 297 square 1;
#X msg 210 91 -2.6;
#X obj 176 56 expr if ($f1 > 1 \, 4.7 \, -4.8) \;;
#X obj 399 139 i;
#X obj 432 139 - 1;
#X floatatom 399 164 5 0 0 0 - - -;
#X obj 456 104 bng 15 250 50 0 empty empty empty 17 7 0 10 -262144
-1 -1;
#X obj 456 75 r explosion_\$1;
#X obj 399 62 r reset;
#X obj 399 218 sel 1;
#X obj 399 268 s mort_\$1;
#X obj 102 4 gemhead 90;
#X obj 461 205 s vie_\$1;
#X obj 464 267 s fin_du_jeu;
#X msg 399 99 3;
#X obj 399 196 < 1;
#X connect 0 0 6 0;
#X connect 1 0 0 0;
#X connect 2 0 10 0;
#X connect 3 0 2 0;
#X connect 4 0 3 0;
#X connect 5 0 1 0;
#X connect 6 0 2 0;
#X connect 7 0 0 1;
#X connect 8 0 12 0;
#X connect 9 0 8 0;
#X connect 9 0 11 0;
#X connect 11 0 0 2;
#X connect 12 0 7 0;
#X connect 13 0 14 0;
#X connect 13 0 15 0;
#X connect 14 0 13 1;
#X connect 15 0 6 1;
#X connect 15 0 22 0;
#X connect 15 0 25 0;
#X connect 16 0 13 0;
#X connect 17 0 16 0;
#X connect 18 0 24 0;
#X connect 19 0 20 0;
#X connect 19 0 23 0;
#X connect 21 0 5 0;
#X connect 24 0 13 0;
#X connect 25 0 19 0;
#X restore 45 234 pd vie;
#X obj 22 280 cnv 15 150 60 empty empty texte_victoire 20 12 0 14 -86277
-262144 0;
#X obj 22 75 cnv 15 200 60 empty empty Dessin_du_bateau 20 12 0 14
-191407 -66577 0;
#X obj 355 71 inlet;
#X obj 388 128 r nb_boulet_\$1;
#X obj 355 154 spigot;
#X obj 355 184 s fire_\$1;
#X obj 22 348 cnv 15 330 60 empty empty collision_entre_boulet_\$1_et_bateau_\$2
20 12 0 14 -258113 -262144 0;
#N canvas 610 42 570 464 collision 1;
#X floatatom 91 90 5 0 0 0 - - -;
#X floatatom 216 90 5 0 0 0 - - -;
#X obj 91 23 unpack f f f;
#X floatatom 135 90 5 0 0 0 - - -;
#X floatatom 265 90 5 0 0 0 - - -;
#X obj 231 23 unpack f f f;
#X obj 135 115 t b f;
#X obj 265 115 t b f;
#X obj 216 115 t b f;
#X obj 91 207 expr sqrt( pow( $f1-$f2 \, 2 )+ pow( $f3 - $f4 \, 2 )
);
#X text 121 226 d = √( x2 - x1 )² + ( y2 - y1 )²);
#X floatatom 91 248 5 0 0 0 - - -;
#X obj 92 2 r coords_boulet_\$1;
#X obj 231 1 r coords_\$2;
#X obj 91 300 change;
#X obj 91 275 < 0.8;
#X obj 91 322 tgl 15 0 empty empty empty 17 7 0 10 -262144 -1 -1 0
1;
#X obj 91 342 sel 1;
#X obj 91 397 s explosion_\$2;
#X text 139 273 si < 0.8 => collision;
#X text 138 283 c'est le diametre du cercle qui represente le bateau
;
#X obj 91 368 bangdelay 200;
#X text 181 367 pour eviter une double-explosion;
#X connect 0 0 9 0;
#X connect 1 0 8 0;
#X connect 2 0 0 0;
#X connect 2 1 1 0;
#X connect 3 0 6 0;
#X connect 4 0 7 0;
#X connect 5 0 3 0;
#X connect 5 1 4 0;
#X connect 6 0 9 0;
#X connect 6 1 9 1;
#X connect 7 0 9 0;
#X connect 7 1 9 3;
#X connect 8 0 9 0;
#X connect 8 1 9 2;
#X connect 9 0 11 0;
#X connect 11 0 15 0;
#X connect 12 0 2 0;
#X connect 13 0 5 0;
#X connect 14 0 16 0;
#X connect 15 0 14 0;
#X connect 16 0 17 0;
#X connect 17 0 21 0;
#X connect 21 0 18 0;
#X restore 44 378 pd collision;
#N canvas 591 97 543 398 win_text 0;
#X obj 180 265 text3d;
#X obj 194 187 loadbang;
#X obj 48 28 r mort_\$1;
#X obj 335 155 \$1;
#X obj 335 204 abs;
#X obj 335 179 - 3;
#X msg 180 66 0;
#X msg 48 72 1;
#X obj 180 19 r reset;
#X obj 180 142 colorRGB 1 0 0;
#X msg 335 227 text l'équipe \$1 gagne !!!;
#X obj 180 119 gemhead 60;
#X obj 48 51 delay 2500;
#X obj 180 165 translateXYZ 0 2 0;
#X msg 214 235 11;
#X obj 48 330 rectangle 4 0.7;
#X obj 48 265 translateXYZ 0 1.8 0;
#X obj 48 209 gemhead 58;
#X obj 48 237 alpha;
#X obj 48 300 colorRGB 1 1 1 0.6;
#X msg 191 213 font font.ttf;
#X connect 1 0 20 0;
#X connect 1 0 14 0;
#X connect 2 0 12 0;
#X connect 3 0 5 0;
#X connect 4 0 10 0;
#X connect 5 0 4 0;
#X connect 6 0 11 0;
#X connect 6 0 17 0;
#X connect 7 0 11 0;
#X connect 7 0 17 0;
#X connect 8 0 6 0;
#X connect 8 0 3 0;
#X connect 9 0 13 0;
#X connect 10 0 0 0;
#X connect 11 0 9 0;
#X connect 12 0 7 0;
#X connect 13 0 0 0;
#X connect 14 0 0 1;
#X connect 16 0 19 0;
#X connect 17 0 18 0;
#X connect 18 0 16 0;
#X connect 19 0 15 0;
#X connect 20 0 0 0;
#X restore 45 309 pd win_text;
#X obj 22 417 cnv 15 150 60 empty empty gestion_boulet 20 12 0 14 -99865
-262144 0;
#N canvas 620 71 564 300 boulet 1;
#X obj 300 159 bng 15 250 50 0 empty empty empty 17 7 0 10 -262144
-1 -1;
#X obj 334 159 bng 15 250 50 0 empty empty empty 17 7 0 10 -262144
-1 -1;
#X floatatom 300 236 5 0 0 0 - - -;
#X obj 352 244 s nb_boulet_\$1;
#X msg 369 158 0;
#X msg 401 159 1;
#X obj 334 112 r fire_\$1;
#X obj 401 112 r reset;
#N canvas 289 60 816 575 envoi_boulet 0;
#X obj 60 489 f;
#X obj 138 127 tgl 15 0 empty empty empty 17 7 0 10 -262144 -1 -1 0
1;
#X obj 89 489 + 0.1;
#X msg 219 110 0;
#X obj 219 87 t b b;
#X msg 138 86 1;
#X obj 60 466 metro 15;
#X msg 248 403 0.25;
#X obj 138 7 r fire_\$1;
#X obj 138 32 bangdelay 2000;
#X obj 219 58 bng 15 250 50 0 empty empty empty 17 7 0 10 -262144 -1
-1;
#X obj 138 59 bng 15 250 50 0 empty empty empty 17 7 0 10 -262144 -1
-1;
#X obj -18 89 s boulet_lance;
#X obj -10 425 rotateXYZ;
#X obj -10 305 translateXYZ;
#X obj -10 524 translateXYZ 0 0 0;
#X obj -10 131 gemhead 60;
#X obj -10 153 alpha;
#X obj -10 682 pix_texture;
#X msg -79 655 quality 0;
#X obj -79 635 loadbang;
#X obj 344 581 gemlist_info;
#X obj 413 611 s coords_boulet_\$1;
#X obj -10 712 square 0.1;
#X obj 363 70 r explosion_\$2;
#X obj 13 191 r coords_\$1;
#X obj 13 215 unpack f f f;
#X obj 314 70 r reset;
#X obj 13 252 spigot;
#X obj 59 253 spigot;
#X obj 105 252 spigot;
#X text 170 161 permet d'inverser le toggle;
#X obj 138 163 != 1;
#X text -21 103 pour le son;
#X text 361 85 si le boulet touche sa cible il faut qu'il disparaisse
;
#X text 280 400 remet le boulet au niveau du bateau un peu devant le
mat;
#X text 151 250 bloque l'influence du bateau sur le boulet apres le
tir;
#X text 425 573 récupère les coordonnees compilées du boulet (merci
mrpropre);
#X floatatom 166 198 5 0 0 0 - - -;
#X obj -10 570 spigot;
#X text 124 480 compteur qui permet le déplacement \; du missile dans
l'axe du bateau;
#X text 38 561 masque le boulet avant le tir \; sans bloquer l'envoi
des coords;
#X obj -10 650 pix_buffer_read boulet;
#X obj 119 609 loadbang;
#X msg 119 629 0;
#X connect 0 0 2 0;
#X connect 0 0 15 2;
#X connect 1 0 6 0;
#X connect 1 0 32 0;
#X connect 1 0 39 1;
#X connect 2 0 0 1;
#X connect 3 0 1 0;
#X connect 4 0 3 0;
#X connect 4 1 7 0;
#X connect 5 0 1 0;
#X connect 6 0 0 0;
#X connect 7 0 0 0;
#X connect 8 0 9 0;
#X connect 9 0 11 0;
#X connect 9 1 10 0;
#X connect 10 0 4 0;
#X connect 11 0 5 0;
#X connect 11 0 12 0;
#X connect 13 0 15 0;
#X connect 14 0 13 0;
#X connect 15 0 21 0;
#X connect 15 0 39 0;
#X connect 16 0 17 0;
#X connect 17 0 14 0;
#X connect 18 0 23 0;
#X connect 19 0 18 0;
#X connect 20 0 19 0;
#X connect 21 4 22 0;
#X connect 24 0 4 0;
#X connect 25 0 26 0;
#X connect 26 0 28 0;
#X connect 26 1 29 0;
#X connect 26 2 30 0;
#X connect 27 0 4 0;
#X connect 28 0 14 1;
#X connect 29 0 14 2;
#X connect 30 0 13 3;
#X connect 32 0 28 1;
#X connect 32 0 29 1;
#X connect 32 0 30 1;
#X connect 32 0 38 0;
#X connect 39 0 42 0;
#X connect 42 0 18 0;
#X connect 43 0 44 0;
#X connect 44 0 42 1;
#X restore 19 39 pd envoi_boulet;
#X obj 300 91 r boulet_chope_\$1;
#X obj 300 191 compteur 0 4;
#X text 123 65 permet de creer \; les boulets a ramasser;
#X text 127 95 permet de ramasser \; les boulets;
#N canvas 194 0 768 810 semer_boulets 0;
#X obj 162 195 gemhead 65;
#X obj 162 374 translateXYZ;
#X obj 162 488 pix_texture;
#X msg 79 471 quality 0;
#X obj 79 448 loadbang;
#X obj 162 517 square 0.2;
#X obj 322 170 bng 15 250 50 0 empty empty empty 17 7 0 10 -262144
-1 -1;
#X obj 322 33 r nb_boulet_\$1;
#X obj 322 102 sel 0;
#X msg 322 134 1;
#X obj 162 69 loadbang;
#X msg 162 93 0;
#X obj 230 68 r reset;
#X obj 429 460 s coords_new_boulet_\$1;
#X obj 429 437 pack f f;
#X obj 429 407 f;
#X obj 429 375 t b f;
#X obj 50 32 r boulet_chope_\$1;
#X obj 24 194 s new_boulet_actif_\$1;
#N canvas 303 31 951 542 calc_coords_new_boulet 0;
#X obj 147 167 / 100;
#X obj 354 144 loadbang;
#X obj 305 144 r reset;
#X obj 354 167 \$1;
#X obj 332 42 inlet;
#X obj 438 167 / 100;
#X obj 438 144 random 700;
#X obj 438 190 - 3.5;
#X obj 230 218 r coords_\$1;
#X obj 230 242 unpack f f f;
#X obj 267 375 ||;
#X obj 148 317 abs;
#X obj 148 293 -;
#X obj 332 309 abs;
#X obj 332 285 -;
#X obj 82 476 outlet x;
#X obj 422 486 outlet y;
#X obj 83 442 f;
#X obj 423 456 f;
#X obj 332 68 bang;
#X obj 267 397 sel 0 1;
#X text 22 8 ce sous patch permet de creer un nouveau boulet à une
distance minimale du bateau (pour les faire courir un peu);
#X text 365 283 comparaison avec le position du bateau;
#X text 338 401 si distance pas atteinte \, creation de nouvelles positions
;
#X obj 148 343 < 1.8;
#X obj 332 334 < 1.8;
#X obj 147 144 random 540;
#X obj 148 190 expr if($f2 == 1 \, $f1-6.2 \, $f1+0.2);
#X text 487 167 creation d'un nombre aleatoire \; pour x et y du nouveau
boulet;
#X text 373 326 valeur de distance minimale entre le bateau et le nouveau
boulet;
#X text 433 17 principe : des coords sont crees \, puis stockees provisoirement
dans des [f]. Elles sont ensuite testees. Si elles correspondent \,
les [f] sont bangés pour outputer les coords \, sinon le processus
recommence jusqu'a ce que ça marche;
#X connect 0 0 27 0;
#X connect 1 0 3 0;
#X connect 2 0 3 0;
#X connect 3 0 27 1;
#X connect 4 0 19 0;
#X connect 5 0 7 0;
#X connect 6 0 5 0;
#X connect 7 0 18 1;
#X connect 7 0 14 0;
#X connect 8 0 9 0;
#X connect 9 0 12 1;
#X connect 9 1 14 1;
#X connect 10 0 20 0;
#X connect 11 0 24 0;
#X connect 12 0 11 0;
#X connect 13 0 25 0;
#X connect 14 0 13 0;
#X connect 17 0 15 0;
#X connect 18 0 16 0;
#X connect 19 0 6 0;
#X connect 19 0 12 0;
#X connect 19 0 14 0;
#X connect 19 0 26 0;
#X connect 20 0 17 0;
#X connect 20 0 18 0;
#X connect 20 1 19 0;
#X connect 24 0 10 0;
#X connect 25 0 10 1;
#X connect 26 0 0 0;
#X connect 27 0 17 1;
#X connect 27 0 12 0;
#X restore 322 211 pd calc_coords_new_boulet;
#X msg 791 82 0;
#X obj 322 72 spigot;
#X msg 416 55 1;
#X obj 416 33 r reset;
#X text 512 49 dès que nb_boulet est a 0 dans un delai \; entre 1
et 4 sec \, faire apparaitre une \; boite avec un boulet dans la zone
du bateau;
#X obj 791 58 sel 1;
#X obj 791 35 <= 1;
#X obj 791 6 r vie_\$2;
#X floatatom 855 35 5 0 0 0 - - -;
#X obj 162 162 tgl 15 0 empty empty empty 17 7 0 10 -262144 -1 -1 0
1;
#N canvas 722 421 450 300 delai 0;
#X obj 155 104 random 3000;
#X obj 98 158 delay 1000;
#X obj 155 131 + 1000;
#X obj 97 61 inlet;
#X obj 111 205 outlet;
#X connect 0 0 2 0;
#X connect 1 0 4 0;
#X connect 2 0 1 1;
#X connect 3 0 1 0;
#X connect 3 0 0 0;
#X restore 453 60 pd delai;
#X obj 162 439 pix_buffer_read new_boulet;
#X obj 315 394 loadbang;
#X msg 315 416 0;
#X text 485 201 calcul savant des coordonnees \; pour ne pas que le
boulet aparaisse \; trop proche du bateau;
#X connect 0 0 1 0;
#X connect 1 0 31 0;
#X connect 2 0 5 0;
#X connect 3 0 2 0;
#X connect 4 0 3 0;
#X connect 6 0 19 0;
#X connect 7 0 21 0;
#X connect 8 0 9 0;
#X connect 9 0 6 0;
#X connect 9 0 29 0;
#X connect 10 0 11 0;
#X connect 11 0 29 0;
#X connect 12 0 11 0;
#X connect 14 0 13 0;
#X connect 15 0 14 0;
#X connect 16 0 15 0;
#X connect 16 1 14 1;
#X connect 17 0 11 0;
#X connect 19 0 1 1;
#X connect 19 0 15 1;
#X connect 19 1 16 0;
#X connect 19 1 1 2;
#X connect 21 0 8 0;
#X connect 22 0 21 1;
#X connect 23 0 22 0;
#X connect 25 0 20 0;
#X connect 26 0 25 0;
#X connect 27 0 26 0;
#X connect 27 0 28 0;
#X connect 29 0 0 0;
#X connect 29 0 18 0;
#X connect 31 0 2 0;
#X connect 32 0 33 0;
#X connect 33 0 31 1;
#X restore 20 71 pd semer_boulets;
#N canvas 144 91 450 520 ramasse_boulet 0;
#X obj 247 24 r coords_new_boulet_\$1;
#X obj 101 29 r coords_\$1;
#X floatatom 101 159 5 0 0 0 - - -;
#X floatatom 226 159 5 0 0 0 - - -;
#X obj 101 92 unpack f f f;
#X floatatom 145 159 5 0 0 0 - - -;
#X floatatom 275 159 5 0 0 0 - - -;
#X obj 145 184 t b f;
#X obj 275 184 t b f;
#X obj 226 184 t b f;
#X obj 101 276 expr sqrt( pow( $f1-$f2 \, 2 )+ pow( $f3 - $f4 \, 2
) );
#X text 131 295 d = √( x2 - x1 )² + ( y2 - y1 )²);
#X floatatom 101 317 5 0 0 0 - - -;
#X obj 247 49 unpack f f;
#X obj 101 402 < 0.8;
#X obj 101 464 s boulet_chope_\$1;
#X obj 200 335 r new_boulet_actif_\$1;
#X obj 101 372 spigot;
#X obj 101 432 sel 1;
#X connect 0 0 13 0;
#X connect 1 0 4 0;
#X connect 2 0 10 0;
#X connect 3 0 9 0;
#X connect 4 0 2 0;
#X connect 4 1 3 0;
#X connect 5 0 7 0;
#X connect 6 0 8 0;
#X connect 7 0 10 0;
#X connect 7 1 10 1;
#X connect 8 0 10 0;
#X connect 8 1 10 3;
#X connect 9 0 10 0;
#X connect 9 1 10 2;
#X connect 10 0 12 0;
#X connect 12 0 17 0;
#X connect 13 0 5 0;
#X connect 13 1 6 0;
#X connect 14 0 18 0;
#X connect 16 0 17 1;
#X connect 17 0 14 0;
#X connect 18 0 15 0;
#X restore 19 101 pd ramasse_boulet;
#N canvas 578 171 624 362 affichage_qte_boulets 0;
#X obj 49 7 gemhead;
#X obj 49 31 alpha;
#X obj 49 286 pix_texture;
#X msg 253 228 text x \$1;
#X obj 253 199 r nb_boulet_\$1;
#X obj 49 136 translateXYZ 0 3.3 0;
#X obj 49 310 square 0.3;
#X msg 386 221 9;
#X obj 386 200 loadbang;
#X msg 131 269 quality 0;
#X obj 131 245 loadbang;
#X obj 88 86 \$1;
#X obj 88 54 loadbang;
#X obj 193 49 bng 15 250 50 0 empty empty empty 17 7 0 10 -262144 -1
-1;
#X obj 239 258 text3d;
#X obj 239 171 translateXYZ 1 0.15 0;
#X obj 49 221 pix_buffer_read boulet;
#X obj 148 169 loadbang;
#X msg 148 190 0;
#X obj 88 113 expr if($f1 < 2 \, -6 \, 4.4) \;;
#X floatatom 309 55 5 0 0 0 - - -;
#X connect 0 0 1 0;
#X connect 1 0 5 0;
#X connect 2 0 6 0;
#X connect 3 0 14 0;
#X connect 4 0 3 0;
#X connect 5 0 15 0;
#X connect 5 0 16 0;
#X connect 7 0 14 1;
#X connect 8 0 7 0;
#X connect 8 0 3 0;
#X connect 9 0 2 0;
#X connect 10 0 9 0;
#X connect 11 0 19 0;
#X connect 12 0 11 0;
#X connect 13 0 11 0;
#X connect 15 0 14 0;
#X connect 16 0 2 0;
#X connect 17 0 18 0;
#X connect 18 0 16 1;
#X connect 19 0 5 1;
#X connect 20 0 5 1;
#X restore 19 8 pd affichage_qte_boulets;
#X connect 0 0 10 0;
#X connect 1 0 10 1;
#X connect 4 0 10 2;
#X connect 5 0 10 2;
#X connect 6 0 1 0;
#X connect 7 0 5 0;
#X connect 9 0 0 0;
#X connect 10 0 2 0;
#X connect 10 0 3 0;
#X restore 44 446 pd boulet;
#N canvas 94 71 1105 370 affichage 0;
#X obj 98 184 alpha;
#X obj 98 111 r reset;
#X msg 98 133 1;
#X obj 526 296 pix_texture;
#X msg 684 279 quality 0;
#X obj 684 259 loadbang;
#X obj 526 321 square 0.8;
#X obj 661 85 r reset;
#X obj 98 288 pix_texture;
#X msg 21 271 quality 0;
#X obj 21 251 loadbang;
#X obj 98 313 square 0.8;
#X obj 98 248 pix_buffer_read ship;
#X obj 215 177 r reset;
#X msg 215 203 0;
#X obj 661 212 metro 600;
#X msg 661 188 1;
#X obj 661 235 tgl 15 0 empty empty empty 17 7 0 10 -262144 -1 -1 0
1;
#X obj 526 191 alpha;
#X obj 98 161 gemhead 55;
#X obj 526 168 gemhead 50;
#X obj 526 95 r reset;
#X msg 526 116 1;
#X msg 491 115 0;
#X text 519 66 sillage;
#X text 99 81 bateau;
#X obj 278 14 cnv 15 200 160 empty empty animation_bateau_coule 20
12 0 14 -204786 -1 0;
#X obj 294 42 r mort_\$1;
#X obj 347 98 delay 1000;
#X obj 401 122 delay 1000;
#X msg 401 144 0;
#X msg 294 94 1;
#X msg 347 123 2;
#X obj 294 68 t b b;
#X obj 853 97 gemhead 60;
#X obj 853 278 pix_texture;
#X msg 1011 261 quality 0;
#X obj 1011 241 loadbang;
#X obj 853 303 square 0.8;
#X obj 853 133 alpha;
#X obj 982 45 r vie_\$1;
#X floatatom 982 66 5 0 0 0 - - -;
#X obj 526 256 pix_buffer_read sillage;
#X obj 853 238 pix_buffer_read degats;
#X obj 982 90 < 2;
#X obj 982 113 sel 1;
#X obj 982 160 tgl 15 0 empty empty empty 17 7 0 10 -262144 -1 -1 0
1;
#X obj 982 180 metro 600;
#X obj 982 208 tgl 15 0 empty empty empty 17 7 0 10 -262144 -1 -1 0
1;
#X msg 982 136 1;
#X obj 853 45 r reset;
#X msg 853 66 0;
#X obj 661 162 delay;
#X floatatom 615 134 5 0 0 0 - - -;
#X obj 661 110 random 150;
#X obj 661 134 t b f;
#N canvas 475 379 450 300 position_boat 0;
#X obj 109 51 inlet;
#X obj 109 191 outlet;
#X obj 151 94 unpack 0 0 0;
#X obj 109 125 translateXYZ;
#X obj 109 152 rotateXYZ;
#X obj 151 66 r coords_\$1;
#X connect 0 0 3 0;
#X connect 2 0 3 1;
#X connect 2 1 3 2;
#X connect 2 2 4 3;
#X connect 3 0 4 0;
#X connect 4 0 1 0;
#X connect 5 0 2 0;
#X restore 98 215 pd position_boat;
#N canvas 475 379 450 300 position_boat 0;
#X obj 109 51 inlet;
#X obj 109 191 outlet;
#X obj 151 94 unpack 0 0 0;
#X obj 109 125 translateXYZ;
#X obj 109 152 rotateXYZ;
#X obj 151 66 r coords_\$1;
#X connect 0 0 3 0;
#X connect 2 0 3 1;
#X connect 2 1 3 2;
#X connect 2 2 4 3;
#X connect 3 0 4 0;
#X connect 4 0 1 0;
#X connect 5 0 2 0;
#X restore 520 223 pd position_boat;
#N canvas 475 379 450 300 position_boat 0;
#X obj 109 51 inlet;
#X obj 109 191 outlet;
#X obj 151 94 unpack 0 0 0;
#X obj 109 125 translateXYZ;
#X obj 109 152 rotateXYZ;
#X obj 151 66 r coords_\$1;
#X connect 0 0 3 0;
#X connect 2 0 3 1;
#X connect 2 1 3 2;
#X connect 2 2 4 3;
#X connect 3 0 4 0;
#X connect 4 0 1 0;
#X connect 5 0 2 0;
#X restore 852 176 pd position_boat;
#X connect 0 0 56 0;
#X connect 1 0 2 0;
#X connect 2 0 19 0;
#X connect 3 0 6 0;
#X connect 4 0 3 0;
#X connect 5 0 4 0;
#X connect 7 0 54 0;
#X connect 8 0 11 0;
#X connect 9 0 8 0;
#X connect 10 0 9 0;
#X connect 12 0 8 0;
#X connect 13 0 14 0;
#X connect 14 0 12 1;
#X connect 15 0 17 0;
#X connect 16 0 15 0;
#X connect 17 0 42 1;
#X connect 18 0 57 0;
#X connect 19 0 0 0;
#X connect 20 0 18 0;
#X connect 21 0 22 0;
#X connect 22 0 20 0;
#X connect 23 0 20 0;
#X connect 27 0 33 0;
#X connect 28 0 32 0;
#X connect 28 0 29 0;
#X connect 28 0 23 0;
#X connect 28 0 51 0;
#X connect 29 0 30 0;
#X connect 30 0 19 0;
#X connect 31 0 12 1;
#X connect 32 0 12 1;
#X connect 33 0 31 0;
#X connect 33 1 28 0;
#X connect 34 0 39 0;
#X connect 35 0 38 0;
#X connect 36 0 35 0;
#X connect 37 0 36 0;
#X connect 39 0 58 0;
#X connect 40 0 41 0;
#X connect 41 0 44 0;
#X connect 42 0 3 0;
#X connect 43 0 35 0;
#X connect 44 0 45 0;
#X connect 45 0 49 0;
#X connect 46 0 47 0;
#X connect 47 0 48 0;
#X connect 48 0 43 1;
#X connect 49 0 46 0;
#X connect 49 0 34 0;
#X connect 50 0 51 0;
#X connect 51 0 34 0;
#X connect 51 0 46 0;
#X connect 52 0 16 0;
#X connect 54 0 53 0;
#X connect 54 0 55 0;
#X connect 55 0 52 0;
#X connect 55 1 52 1;
#X connect 56 0 12 0;
#X connect 57 0 42 0;
#X connect 58 0 43 0;
#X restore 45 101 pd affichage;
#X obj 355 102 bangdelay 2000;
#X obj 26 7 cnv 15 600 22 empty empty Abstraction_du_Bateau_\$1 150
12 0 20 -261234 -1 0;
#X connect 6 0 16 0;
#X connect 7 0 8 1;
#X connect 8 0 9 0;
#X connect 16 0 8 0;
