#N canvas 414 55 539 409 10;
#X obj 181 143 + 1;
#X msg 168 79 1;
#X msg 266 74 -1;
#X obj 227 49 t b b b;
#X obj 129 53 t b b b;
#X obj 350 203 sel 1;
#X obj 238 203 sel 1;
#X obj 129 21 inlet;
#X obj 227 22 inlet;
#X obj 70 217 outlet;
#X obj 350 227 \$2;
#X obj 142 160 int;
#X obj 238 228 \$1;
#X obj 387 32 inlet;
#X obj 350 177 > \$2;
#X obj 238 177 < \$1;
#X connect 0 0 11 1;
#X connect 1 0 0 1;
#X connect 2 0 0 1;
#X connect 3 0 11 0;
#X connect 3 1 0 0;
#X connect 3 2 2 0;
#X connect 4 0 11 0;
#X connect 4 1 0 0;
#X connect 4 2 1 0;
#X connect 5 0 10 0;
#X connect 6 0 12 0;
#X connect 7 0 4 0;
#X connect 8 0 3 0;
#X connect 10 0 11 0;
#X connect 11 0 0 0;
#X connect 11 0 9 0;
#X connect 11 0 14 0;
#X connect 11 0 15 0;
#X connect 12 0 11 0;
#X connect 13 0 11 0;
#X connect 14 0 5 0;
#X connect 15 0 6 0;
