#N canvas 0 0 450 300 10;
#X obj 112 8 inlet;
#X obj 112 215 outlet;
#X obj 190 69 \$2;
#X obj 190 91 - \$1;
#X obj 157 114 random;
#X obj 112 37 t b b b;
#X obj 157 141 + \$1;
#X obj 112 168 delay \$1;
#X text 31 250 creates a random delay beetween arg 1 and arg 2;
#X connect 0 0 5 0;
#X connect 2 0 3 0;
#X connect 3 0 4 1;
#X connect 4 0 6 0;
#X connect 5 0 7 0;
#X connect 5 1 4 0;
#X connect 5 2 2 0;
#X connect 6 0 7 1;
#X connect 7 0 1 0;
