#N canvas 460 65 799 647 10;
#X declare -lib maxlib -lib oscx -lib mrpeach;
#X obj 171 166 tcpclient;
#X msg 375 102 disconnect;
#X msg 110 140 dump \$1;
#X obj 110 108 tgl 15 0 empty empty empty 0 -6 0 8 -4034 -13381 -1
0 1;
#X obj 173 226 moocow/bytes2any;
#X obj 173 262 list split 2;
#X obj 173 382 list trim;
#X obj 112 25 import maxlib oscx mrpeach;
#X obj 171 53 inlet;
#X obj 173 535 outlet;
#X obj 375 60 inlet;
#X floatatom 173 499 5 0 0 0 - - -;
#X msg 171 100 connect 192.168.0.11 1100;
#X obj 173 423 route b;
#X obj 267 339 list split 2;
#X obj 268 372 list trim;
#X floatatom 268 435 5 0 0 0 - - -;
#X obj 267 405 route s;
#X obj 344 157 tgl 15 0 empty empty empty 17 7 0 10 -262144 -1 -1 1
1;
#X obj 344 179 moocow/any2bytes;
#X msg 433 134 2;
#X msg 492 133 3;
#X connect 0 0 4 0;
#X connect 1 0 0 0;
#X connect 2 0 0 0;
#X connect 3 0 2 0;
#X connect 4 0 5 0;
#X connect 5 0 6 0;
#X connect 5 1 14 0;
#X connect 6 0 13 0;
#X connect 8 0 12 0;
#X connect 10 0 1 0;
#X connect 11 0 9 0;
#X connect 12 0 0 0;
#X connect 13 0 11 0;
#X connect 14 0 15 0;
#X connect 15 0 17 0;
#X connect 17 0 16 0;
#X connect 18 0 19 0;
#X connect 19 0 0 0;
#X connect 20 0 19 0;
#X connect 21 0 19 0;
