#N canvas 245 8 1102 680 12;
#X declare -lib maxlib -lib oscx -lib mrpeach;
#X obj 125 433 route b;
#X floatatom 125 470 5 0 0 0 - - -;
#X obj 113 287 moocow/bytes2any;
#X obj 26 133 select 10;
#X obj 137 201 list prepend;
#X obj 110 262 list;
#X obj 148 229 t l;
#X floatatom 597 473 5 0 0 0 - - -;
#X obj 601 285 moocow/bytes2any;
#X obj 575 153 select 10;
#X obj 625 199 list prepend;
#X obj 598 260 list;
#X obj 636 227 t l;
#X msg 36 69 close;
#X msg 583 88 close;
#X obj 814 135 gemwindow;
#X obj -19 472 gemhead;
#X obj -17 527 rotateXYZ;
#X obj 455 518 rotateXYZ;
#X obj 453 461 gemhead;
#X obj 855 245 connection_tcp;
#X floatatom 853 296 5 0 0 0 - - -;
#X obj 854 210 bng 15 250 50 0 empty empty empty 17 7 0 10 -262144
-1 -1;
#X obj -18 500 translateXYZ -3 2 0;
#X obj 454 491 translateXYZ 3 2 0;
#X obj 597 500 * -1;
#X obj 125 507 * -1;
#X obj 831 65 loadbang;
#X obj 651 69 tgl 15 0 empty empty empty 17 7 0 10 -262144 -1 -1 0
1;
#X obj 651 91 moocow/any2bytes;
#X obj 126 46 tgl 15 0 empty empty empty 17 7 0 10 -262144 -1 -1 0
1;
#X obj 126 68 moocow/any2bytes;
#X obj -17 556 rectangle 1 0.5;
#X obj 457 546 rectangle 1 0.5;
#X obj 332 130 list split 2;
#X obj 422 162 list split 2;
#X obj 333 191 list trim;
#X obj 423 195 list trim;
#X floatatom 417 352 5 0 0 0 - - -;
#X obj 417 279 route s;
#X obj 650 323 list split 2;
#X obj 740 355 list split 2;
#X obj 741 388 list trim;
#X floatatom 741 451 5 0 0 0 - - -;
#X obj 740 421 route s;
#X obj 661 374 list trim;
#X msg 215 23 2;
#X msg 274 22 3;
#X msg 720 9 2;
#X msg 779 8 3;
#X floatatom 1027 361 5 0 0 0 - - -;
#X obj 878 448 rotateXYZ;
#X obj 793 385 gemhead;
#X obj 1029 465 * -1;
#X obj 879 516 rectangle 1 0.5;
#X obj 877 421 translateXYZ 0 -2 0;
#X obj 22 109 comport 8 115200;
#X msg 22 44 open 8;
#X obj 596 437 route c;
#X msg 571 55 open 8;
#X obj 571 129 comport 8 115200;
#X floatatom 318 482 5 0 0 0 - - -;
#X obj 176 527 rotateXYZ;
#X obj 174 470 gemhead;
#X obj 175 500 translateXYZ 3 2 0;
#X obj 318 509 * -1;
#X obj 178 555 rectangle 1 0.5;
#X obj 318 435 route c;
#X connect 0 0 1 0;
#X connect 1 0 26 0;
#X connect 2 0 0 0;
#X connect 2 0 67 0;
#X connect 3 0 5 0;
#X connect 3 0 4 1;
#X connect 3 1 4 0;
#X connect 4 0 5 1;
#X connect 4 0 6 0;
#X connect 5 0 2 0;
#X connect 6 0 4 1;
#X connect 7 0 25 0;
#X connect 9 0 11 0;
#X connect 9 0 10 1;
#X connect 9 1 10 0;
#X connect 10 0 11 1;
#X connect 10 0 12 0;
#X connect 11 0 8 0;
#X connect 12 0 10 1;
#X connect 13 0 56 0;
#X connect 14 0 60 0;
#X connect 16 0 23 0;
#X connect 17 0 32 0;
#X connect 18 0 33 0;
#X connect 20 0 21 0;
#X connect 21 0 50 0;
#X connect 22 0 20 0;
#X connect 23 0 17 0;
#X connect 24 0 18 0;
#X connect 25 0 18 3;
#X connect 26 0 17 3;
#X connect 28 0 29 0;
#X connect 29 0 60 0;
#X connect 30 0 31 0;
#X connect 31 0 56 0;
#X connect 34 0 36 0;
#X connect 34 1 35 0;
#X connect 35 0 37 0;
#X connect 37 0 39 0;
#X connect 39 0 38 0;
#X connect 40 0 45 0;
#X connect 40 1 41 0;
#X connect 41 0 42 0;
#X connect 42 0 44 0;
#X connect 44 0 43 0;
#X connect 46 0 31 0;
#X connect 47 0 31 0;
#X connect 48 0 29 0;
#X connect 49 0 29 0;
#X connect 50 0 53 0;
#X connect 51 0 54 0;
#X connect 52 0 55 0;
#X connect 53 0 51 3;
#X connect 55 0 51 0;
#X connect 56 0 3 0;
#X connect 57 0 56 0;
#X connect 58 0 7 0;
#X connect 59 0 60 0;
#X connect 60 0 9 0;
#X connect 61 0 65 0;
#X connect 62 0 66 0;
#X connect 63 0 64 0;
#X connect 64 0 62 0;
#X connect 65 0 62 3;
#X connect 67 0 61 0;
