#N canvas 126 62 1102 680 12;
#X floatatom 272 497 5 0 0 0 - - -;
#X obj 359 355 moocow/bytes2any;
#X obj 384 257 list prepend;
#X obj 359 318 list;
#X obj 413 290 t l;
#X msg 373 108 close;
#X obj 79 490 gemhead;
#X obj 79 545 rotateXYZ;
#X obj 79 518 translateXYZ -3 2 0;
#X obj 463 85 tgl 15 0 empty empty empty 17 7 0 10 -262144 -1 -1 0
1;
#X obj 463 107 moocow/any2bytes;
#X msg 552 62 2;
#X msg 611 61 3;
#X obj 502 535 rotateXYZ;
#X obj 502 479 gemhead;
#X obj 502 508 translateXYZ 3 2 0;
#X obj 79 574 rectangle 0.5 1;
#X obj 502 563 rectangle 0.5 1;
#X obj 359 187 select 10;
#X obj 585 230 gemwindow;
#X obj 272 460 route b;
#X obj 682 443 route c;
#X obj 359 148 comport 8 115200;
#X obj 272 525 maxlib/scale 0 255 0 -360;
#X floatatom 682 487 5 0 0 0 - - -;
#X obj 682 515 maxlib/scale 0 255 0 -360;
#X msg 359 83 open 8;
#X connect 0 0 23 0;
#X connect 1 0 20 0;
#X connect 1 0 21 0;
#X connect 2 0 3 1;
#X connect 2 0 4 0;
#X connect 3 0 1 0;
#X connect 4 0 2 1;
#X connect 5 0 22 0;
#X connect 6 0 8 0;
#X connect 7 0 16 0;
#X connect 8 0 7 0;
#X connect 9 0 10 0;
#X connect 10 0 22 0;
#X connect 11 0 10 0;
#X connect 12 0 10 0;
#X connect 13 0 17 0;
#X connect 14 0 15 0;
#X connect 15 0 13 0;
#X connect 18 0 3 0;
#X connect 18 0 2 1;
#X connect 18 1 2 0;
#X connect 20 0 0 0;
#X connect 21 0 24 0;
#X connect 22 0 18 0;
#X connect 23 0 7 3;
#X connect 24 0 25 0;
#X connect 25 0 13 3;
#X connect 26 0 22 0;
